<?xml version="1.0" standalone="no"?>
<!DOCTYPE svg PUBLIC "-//W3C//DTD SVG 20010904//EN"
 "http://www.w3.org/TR/2001/REC-SVG-20010904/DTD/svg10.dtd">
<svg version="1.0" xmlns="http://www.w3.org/2000/svg"
 width="591.000000pt" height="591.000000pt" viewBox="0 0 591.000000 591.000000"
 preserveAspectRatio="xMidYMid meet">

<g transform="translate(0.000000,591.000000) scale(0.100000,-0.100000)"
fill="#000000" stroke="none">
<path d="M3973 4868 c-59 -18 -63 -21 -63 -48 0 -20 5 -30 15 -30 12 0 15 -16
15 -80 0 -47 -4 -80 -10 -80 -5 0 -10 -18 -10 -40 l0 -40 70 0 70 0 0 40 c0
22 -4 40 -10 40 -5 0 -11 54 -12 128 l-3 128 -62 -18z"/>
<path d="M2047 4873 c-4 -3 -7 -19 -7 -35 0 -21 5 -28 20 -28 19 0 20 -7 20
-95 0 -88 -1 -95 -20 -95 -16 0 -20 -7 -20 -35 l0 -35 140 0 140 0 0 71 0 70
-27 -3 c-21 -2 -29 -10 -37 -35 -7 -27 -14 -33 -37 -33 -31 0 -37 10 -31 52 3
22 10 28 28 28 19 0 24 5 24 25 0 20 -5 25 -25 25 -21 0 -25 5 -25 30 0 27 3
30 30 30 26 0 31 -5 37 -30 4 -25 10 -30 34 -30 29 0 29 0 29 65 l0 65 -133 0
c-74 0 -137 -3 -140 -7z"/>
<path d="M2375 4857 c-36 -30 -43 -91 -16 -134 14 -23 36 -37 81 -54 33 -12
59 -27 57 -33 -6 -18 -62 -19 -77 -2 -7 9 -25 16 -41 16 -28 0 -29 -2 -29 -50
l0 -50 53 -1 c28 0 68 -1 89 -1 69 -3 115 51 104 121 -7 47 -37 74 -101 95
-33 10 -55 23 -55 32 0 19 54 19 70 -1 7 -8 25 -15 41 -15 28 0 29 2 29 50 0
49 -1 50 -29 50 -16 0 -31 -6 -34 -12 -4 -10 -7 -10 -18 0 -22 21 -95 15 -124
-11z"/>
<path d="M2610 4846 c0 -25 5 -35 20 -39 18 -5 20 -14 20 -92 0 -78 -2 -87
-20 -92 -15 -4 -20 -14 -20 -39 l0 -34 135 0 135 0 0 70 c0 67 -1 70 -24 70
-18 0 -25 -8 -32 -32 -8 -27 -15 -34 -42 -36 -31 -3 -32 -2 -32 37 0 37 2 41
25 41 20 0 25 5 25 25 0 20 -5 25 -25 25 -21 0 -25 5 -25 30 0 27 3 30 31 30
24 0 32 -6 40 -30 8 -22 17 -30 35 -30 23 0 24 3 24 65 l0 65 -135 0 -135 0 0
-34z"/>
<path d="M2947 4874 c-4 -4 -7 -20 -7 -36 0 -21 5 -28 20 -28 26 0 25 -12 -5
-109 -17 -53 -31 -81 -40 -81 -10 0 -15 -11 -15 -35 l0 -35 70 0 70 0 0 35 c0
28 -4 35 -19 35 -14 0 -18 5 -14 20 4 16 14 20 43 20 29 0 39 -4 43 -20 3 -13
0 -20 -9 -20 -9 0 -14 -12 -14 -35 l0 -35 90 0 90 0 0 35 c0 24 -5 35 -15 35
-9 0 -21 25 -35 73 -12 39 -29 97 -38 127 l-17 55 -95 3 c-53 1 -99 0 -103 -4z
m122 -126 c9 -37 9 -38 -19 -38 -28 0 -29 1 -19 33 23 71 20 71 38 5z"/>
<path d="M3360 4846 c0 -25 5 -35 20 -39 18 -5 20 -14 20 -96 0 -84 -1 -91
-20 -91 -16 0 -20 -7 -20 -35 l0 -35 65 0 65 0 0 35 c0 24 -5 35 -15 35 -12 0
-15 12 -14 53 0 59 0 60 60 -50 l40 -73 59 0 60 0 0 126 c0 119 1 126 21 131
16 4 19 12 17 37 -3 31 -4 31 -65 34 l-63 3 0 -36 c0 -24 4 -35 15 -35 12 0
15 -14 15 -62 l0 -63 -29 49 c-16 27 -39 71 -52 97 l-22 49 -79 0 -78 0 0 -34z"/>
<path d="M3790 4873 c-37 -14 -41 -66 -6 -88 19 -13 28 -14 50 -4 37 17 37 71
1 87 -14 7 -27 12 -28 11 -1 0 -9 -3 -17 -6z m34 -19 c9 -3 16 -16 16 -29 0
-25 -21 -38 -45 -29 -18 7 -20 50 -2 57 6 3 13 6 14 6 1 1 8 -2 17 -5z"/>
<path d="M1657 4433 c-11 -11 -8 -173 3 -173 6 0 10 31 11 73 l1 72 15 -53 c9
-29 21 -51 27 -49 6 2 18 26 26 53 l15 49 3 -72 c2 -40 7 -73 13 -73 6 0 9 34
7 88 -2 68 -6 87 -18 87 -9 0 -20 -19 -28 -49 -15 -53 -23 -51 -41 12 -11 40
-20 50 -34 35z"/>
<path d="M1984 4432 c-8 -6 -45 -141 -44 -164 0 -19 19 -6 22 15 2 16 11 23
30 25 22 3 29 -2 34 -22 3 -14 10 -26 15 -26 12 0 12 8 -7 94 -16 72 -29 92
-50 78z m30 -75 c5 -20 2 -29 -9 -34 -27 -10 -35 9 -24 52 12 41 20 37 33 -18z"/>
<path d="M2210 4350 c0 -53 4 -90 10 -90 6 0 10 16 10 35 0 22 5 35 13 35 7 0
21 -16 30 -35 9 -19 21 -35 27 -35 5 0 2 16 -7 36 -14 28 -15 39 -5 54 30 48
5 90 -52 90 -26 0 -26 0 -26 -90z m65 35 c0 -23 -5 -31 -22 -33 -20 -3 -23 1
-23 33 0 32 3 36 23 33 17 -2 22 -10 22 -33z"/>
<path d="M2567 4433 c-4 -3 -7 -44 -7 -90 l0 -83 40 0 c49 0 60 18 60 94 0 45
-4 58 -22 70 -23 16 -60 21 -71 9z m62 -27 c7 -8 11 -37 9 -68 -3 -50 -5 -53
-30 -56 l-28 -3 0 70 c0 63 2 71 19 71 10 0 24 -6 30 -14z"/>
<path d="M2837 4433 c-4 -3 -7 -44 -7 -90 l0 -83 40 0 c22 0 40 5 40 10 0 6
-13 10 -30 10 -27 0 -30 3 -30 30 0 25 4 30 25 30 14 0 25 5 25 10 0 6 -12 10
-26 10 -22 0 -25 4 -22 28 2 19 9 28 26 30 12 2 22 8 22 13 0 10 -53 12 -63 2z"/>
<path d="M3074 4427 c-3 -8 -4 -47 -2 -88 l3 -74 33 -3 c18 -2 32 1 32 7 0 6
-10 11 -23 11 -22 0 -22 3 -21 75 2 70 -9 105 -22 72z"/>
<path d="M3390 4349 c0 -57 4 -88 10 -84 6 3 10 19 10 36 0 24 4 29 25 29 26
0 45 25 45 59 0 24 -36 51 -67 51 -22 0 -23 -3 -23 -91z m66 47 c7 -30 1 -42
-26 -49 -18 -4 -20 0 -20 34 0 32 3 39 20 39 12 0 22 -9 26 -24z"/>
<path d="M3648 4434 c-5 -4 -8 -45 -8 -91 l0 -83 35 0 c19 0 35 5 35 10 0 6
-11 10 -25 10 -23 0 -24 2 -27 81 -2 44 -6 77 -10 73z"/>
<path d="M3896 4432 c-2 -4 -12 -36 -21 -72 -9 -36 -18 -73 -21 -82 -4 -12 0
-18 10 -18 10 0 16 9 16 26 0 22 4 25 28 22 19 -2 28 -9 30 -25 2 -13 10 -23
18 -23 10 0 14 6 11 18 -3 9 -11 42 -17 72 -18 79 -37 109 -54 82z m28 -53
c10 -50 7 -59 -14 -59 -11 0 -20 6 -20 14 0 28 13 76 20 76 4 0 10 -14 14 -31z"/>
<path d="M4115 4430 c-3 -5 1 -10 9 -10 13 0 16 -14 16 -80 0 -47 4 -80 10
-80 6 0 10 32 10 76 0 67 2 76 20 81 11 3 17 9 14 14 -7 12 -71 11 -79 -1z"/>
<path d="M4382 4423 c-5 -10 -15 -43 -22 -73 -6 -30 -14 -63 -17 -72 -2 -10 0
-18 6 -18 6 0 14 11 17 26 5 20 12 24 33 22 18 -2 27 -10 29 -25 2 -13 8 -23
13 -23 13 0 10 35 -9 109 -18 67 -34 85 -50 54z m28 -27 c0 -7 3 -28 6 -45 6
-27 4 -31 -15 -31 -22 0 -25 9 -15 59 6 31 24 44 24 17z"/>
<path d="M3865 4093 c-65 -10 -223 -56 -273 -79 -29 -13 -57 -24 -61 -24 -5 0
-11 -3 -13 -7 -1 -5 -21 -17 -43 -28 -51 -25 -164 -101 -191 -129 -12 -11 -39
-37 -60 -57 -65 -60 -140 -151 -173 -209 -45 -80 -59 -111 -45 -99 13 10 17
10 24 0 5 -8 9 -9 11 -3 4 10 174 19 204 12 23 -5 34 1 38 23 4 19 4 18 6 -5
1 -35 21 -37 21 -3 0 14 5 25 11 25 7 0 9 -9 6 -21 -3 -12 -4 -19 -2 -17 1 1
30 39 62 83 33 44 74 95 91 114 18 18 32 37 32 43 0 5 5 6 10 3 6 -3 10 -2 10
4 0 16 174 127 237 151 134 51 309 65 437 35 61 -14 84 -22 141 -46 11 -5 27
-10 35 -11 8 -2 17 -6 20 -9 3 -4 41 -33 85 -66 44 -33 107 -89 139 -126 33
-36 64 -63 69 -60 6 3 7 1 3 -5 -7 -11 19 -60 39 -74 5 -4 15 -6 22 -4 6 3 18
-10 27 -27 8 -18 16 -26 16 -19 0 9 31 12 121 12 l121 0 -6 38 c-5 36 -5 36 6
7 11 -31 38 -68 45 -61 9 9 -122 216 -138 216 -5 0 -9 5 -9 11 0 21 -188 194
-227 210 -13 5 -23 12 -23 17 0 4 -16 14 -35 22 -19 8 -35 17 -35 21 0 12
-208 96 -295 119 -64 18 -114 22 -255 25 -96 2 -188 1 -205 -2z m-787 -563
c-7 -10 -14 -17 -17 -15 -4 4 18 35 25 35 2 0 -1 -9 -8 -20z m1912 -10 c0 -5
-5 -10 -11 -10 -5 0 -7 5 -4 10 3 6 8 10 11 10 2 0 4 -4 4 -10z"/>
<path d="M4030 3776 c-7 -24 -8 -47 0 -80 12 -53 4 -120 -16 -153 -15 -23 -9
-29 13 -15 27 17 48 142 24 142 -5 0 -8 32 -6 70 1 39 1 70 -1 70 -1 0 -7 -15
-14 -34z"/>
<path d="M4077 3784 c-14 -14 -8 -64 8 -64 16 0 18 23 6 53 -3 10 -10 15 -14
11z"/>
<path d="M4358 3672 c-27 -2 -48 -7 -48 -11 0 -4 -22 -14 -50 -21 -27 -7 -50
-17 -50 -21 0 -4 -11 -9 -24 -13 -26 -6 -126 -99 -126 -117 0 -8 4 -8 14 1 12
9 21 7 44 -10 l28 -21 -90 -94 c-50 -52 -93 -92 -95 -89 -3 2 11 21 31 42 68
71 60 85 -8 16 -38 -38 -90 -87 -116 -109 -56 -47 -73 -82 -72 -155 0 -83 40
-145 113 -176 42 -18 41 -18 41 7 0 12 -16 39 -35 60 -43 48 -51 123 -18 179
9 16 12 18 8 5 -24 -71 -12 -140 29 -174 14 -12 16 -10 16 7 0 11 -7 22 -15
26 -27 10 -17 54 22 97 39 43 175 129 205 129 12 0 18 -8 18 -23 0 -12 9 -28
20 -35 17 -10 20 -10 20 4 0 14 3 14 16 3 13 -10 17 -10 24 0 4 8 12 11 18 7
18 -11 35 23 29 60 -5 31 -2 40 24 64 38 34 28 39 -65 28 -86 -10 -197 -61
-251 -115 -26 -26 -34 -31 -26 -15 53 102 257 190 381 163 69 -15 67 -15 86
21 19 37 74 196 74 214 0 6 -9 14 -20 17 -11 3 -19 11 -18 18 4 16 -75 35
-134 31z m-3 -89 c3 -38 8 -80 10 -95 3 -16 0 -28 -5 -28 -5 0 -12 17 -15 38
-3 20 -9 53 -13 72 l-6 35 -4 -32 c-2 -18 1 -48 7 -67 5 -20 6 -38 1 -41 -12
-8 -17 4 -25 55 -4 25 -11 49 -16 55 -5 5 -9 18 -9 28 0 15 5 18 24 13 20 -5
23 -3 19 14 -4 14 0 20 10 20 12 0 17 -16 22 -67z m54 0 c0 -38 -3 -86 -8
-108 l-7 -40 -7 40 c-3 22 -4 57 0 77 4 25 2 38 -6 38 -12 0 -15 42 -4 53 3 4
12 7 20 7 10 0 13 -18 12 -67z m51 42 c0 -8 6 -12 13 -10 6 3 18 1 26 -4 13
-8 11 -22 -10 -96 -13 -48 -27 -92 -31 -98 -15 -24 -16 1 -3 58 9 36 11 63 5
69 -9 9 -13 -4 -25 -76 -3 -21 -11 -38 -17 -38 -5 0 -8 6 -5 14 3 7 9 51 12
97 4 46 9 87 12 92 7 12 23 8 23 -8z m-180 -81 c23 -76 23 -74 11 -74 -12 0
-63 129 -56 141 12 18 24 -2 45 -67z m-41 7 c26 -62 26 -76 1 -78 -14 -1 -29
11 -47 38 -14 21 -27 39 -29 39 -11 0 -1 -22 22 -50 39 -46 25 -45 -24 2 l-43
41 21 19 c12 11 27 17 35 15 7 -3 16 1 19 9 10 25 23 15 45 -35z m-91 -51 c34
-31 39 -40 21 -40 -17 0 -79 52 -73 61 8 14 17 11 52 -21z m62 -212 c-14 -7
-58 -26 -97 -44 -40 -18 -73 -31 -73 -28 0 9 88 58 125 70 49 16 79 17 45 2z
m-361 -167 c-16 -44 -3 -108 28 -150 14 -18 20 -32 13 -29 -25 8 -52 56 -57
101 -5 40 13 125 23 114 2 -2 -1 -18 -7 -36z m76 -201 c3 -5 2 -10 -4 -10 -5
0 -13 5 -16 10 -3 6 -2 10 4 10 5 0 13 -4 16 -10z"/>
<path d="M4207 3526 c9 -20 20 -36 24 -36 9 0 -19 57 -32 65 -5 4 -2 -10 8
-29z"/>
<path d="M3972 3493 c-13 -26 -4 -43 23 -43 27 0 49 24 41 45 -8 21 -53 19
-64 -2z m58 -7 c0 -2 -11 -6 -25 -8 -14 -3 -25 -1 -25 3 0 5 11 9 25 9 14 0
25 -2 25 -4z"/>
<path d="M4540 3480 c-9 -6 -10 -10 -3 -10 6 0 15 5 18 10 8 12 4 12 -15 0z"/>
<path d="M4003 3424 c0 -7 6 -10 14 -7 7 3 13 8 13 12 0 4 -6 8 -13 8 -8 0
-14 -6 -14 -13z"/>
<path d="M4529 3403 c-13 -16 -12 -17 4 -4 16 13 21 21 13 21 -2 0 -10 -8 -17
-17z"/>
<path d="M4010 3400 c-8 -5 -12 -12 -9 -15 4 -3 12 1 19 10 14 17 11 19 -10 5z"/>
<path d="M4359 3309 l-24 -20 30 17 c39 24 40 24 28 24 -6 0 -21 -9 -34 -21z"/>
<path d="M4372 3267 c-8 -10 -6 -13 7 -13 11 0 17 6 14 13 -3 7 -6 13 -8 13
-1 0 -7 -6 -13 -13z"/>
<path d="M4421 3224 c0 -11 3 -14 6 -6 3 7 2 16 -1 19 -3 4 -6 -2 -5 -13z"/>
<path d="M4320 3184 c0 -8 5 -12 10 -9 6 4 8 11 5 16 -9 14 -15 11 -15 -7z"/>
<path d="M4091 3173 c-7 -8 -10 -17 -7 -20 9 -9 29 13 25 25 -2 6 -10 3 -18
-5z"/>
<path d="M4086 3123 c-6 -14 -5 -15 5 -6 7 7 10 15 7 18 -3 3 -9 -2 -12 -12z"/>
<path d="M4255 3130 c-3 -5 -1 -10 4 -10 6 0 11 5 11 10 0 6 -2 10 -4 10 -3 0
-8 -4 -11 -10z"/>
<path d="M4247 3103 c-4 -6 2 -22 12 -34 16 -20 22 -22 33 -11 11 11 10 12 -3
7 -12 -5 -19 1 -26 21 -5 16 -12 23 -16 17z"/>
<path d="M4071 3053 c-1 -6 -4 -20 -7 -30 -5 -17 -5 -17 6 0 6 10 9 23 6 30
-3 9 -5 9 -5 0z"/>
<path d="M4080 2960 c0 -5 25 -21 54 -35 59 -28 97 -74 95 -116 -1 -22 -2 -21
-11 6 -6 17 -20 41 -32 53 -23 26 -75 56 -83 48 -10 -9 8 -45 25 -49 16 -4 16
-5 0 -6 -23 -1 -23 -17 2 -48 47 -60 10 -116 -135 -203 -186 -113 -265 -202
-265 -301 1 -125 135 -251 285 -266 30 -3 55 -3 55 -1 0 3 -16 23 -35 44 -63
69 -87 118 -87 178 -1 81 38 153 139 256 99 102 127 139 149 196 36 95 -2 207
-82 240 -39 16 -74 18 -74 4z m-105 -401 c-38 -22 -80 -50 -92 -62 -13 -11
-23 -16 -23 -11 0 13 155 114 175 114 6 0 -21 -19 -60 -41z m-151 -120 c-14
-23 -32 -69 -39 -103 -7 -33 -14 -50 -14 -36 -1 44 16 100 43 141 35 52 43 50
10 -2z m101 -99 c-4 -12 -9 -19 -12 -17 -3 3 -2 15 2 27 4 12 9 19 12 17 3 -3
2 -15 -2 -27z m10 -170 c8 -16 13 -30 10 -30 -15 0 -44 89 -44 130 l1 45 9
-57 c4 -32 15 -71 24 -88z m-40 -11 c10 -19 25 -43 34 -54 16 -20 16 -20 -6
-1 -33 28 -63 97 -62 142 l1 39 8 -46 c4 -25 16 -61 25 -80z"/>
<path d="M2625 1700 c-4 -6 3 -10 14 -10 25 0 27 6 6 13 -8 4 -17 2 -20 -3z"/>
<path d="M2220 1655 c-11 -25 -19 -49 -17 -53 6 -10 -12 -56 -19 -49 -3 3 -1
15 6 26 6 12 8 21 5 21 -3 0 -13 -16 -21 -36 -11 -26 -12 -40 -5 -47 15 -15
24 -3 54 73 35 88 47 88 47 -2 0 -40 2 -82 4 -93 2 -11 1 -14 -1 -7 -3 8 -15
11 -34 8 -16 -2 -31 -1 -34 3 -10 18 -50 4 -56 -20 -4 -13 -8 -19 -9 -14 -1 9
-27 -50 -29 -67 -1 -8 20 -5 37 6 8 5 10 16 6 29 -3 12 -3 19 1 15 5 -4 13 0
20 9 7 9 27 16 48 17 35 1 36 0 39 -39 2 -32 7 -40 23 -40 19 0 20 7 22 153
l2 152 -34 0 c-31 0 -36 -4 -55 -45z m-70 -236 c0 -5 -4 -9 -8 -9 -5 0 -9 7
-9 15 0 8 4 12 9 9 4 -3 8 -9 8 -15z m150 -2 c0 -7 -4 -6 -10 3 -8 12 -10 12
-10 1 0 -8 -3 -12 -6 -8 -9 9 6 28 17 22 5 -4 9 -12 9 -18z"/>
<path d="M2402 1622 c-7 -5 -19 -49 -27 -98 -20 -119 -19 -134 3 -134 16 0 21
15 33 98 7 53 13 100 11 105 -1 4 13 7 31 8 30 1 31 1 7 9 -21 7 -21 8 -5 9
24 1 39 -9 43 -28 3 -13 -11 -121 -24 -178 -3 -19 0 -23 18 -22 22 0 22 1 3 9
-19 8 -19 9 1 9 23 1 23 2 40 137 6 46 4 53 -17 68 -24 17 -95 22 -117 8z
m126 -47 c-3 -3 -9 2 -12 12 -6 14 -5 15 5 6 7 -7 10 -15 7 -18z"/>
<path d="M2628 1622 c-11 -2 -19 -16 -22 -35 -3 -18 -11 -64 -17 -104 -7 -39
-9 -78 -6 -87 9 -22 37 -9 37 18 0 17 -2 18 -11 6 -8 -11 -9 -9 -3 10 4 14 10
27 14 30 8 5 35 159 29 163 -2 2 -12 2 -21 -1z"/>
<path d="M2707 1623 c-9 -8 -9 -111 -1 -180 7 -52 8 -53 39 -53 34 0 52 21 38
43 -3 7 -2 9 2 4 9 -7 44 57 45 80 0 7 9 28 20 48 11 19 17 35 14 35 -4 0 -1
7 6 15 11 13 9 15 -11 12 -20 -3 -29 -19 -57 -93 -32 -85 -55 -120 -73 -108
-5 3 -9 15 -8 27 1 20 2 20 9 -3 5 -17 8 3 9 62 1 74 -1 86 -14 82 -8 -4 -15
-1 -15 5 0 6 7 11 16 11 8 0 12 5 9 10 -7 12 -19 13 -28 3z m134 -36 c-10 -9
-11 -8 -5 6 3 10 9 15 12 12 3 -3 0 -11 -7 -18z"/>
<path d="M2944 1615 c-44 -30 -63 -105 -48 -183 5 -22 14 -34 35 -41 18 -6 29
-6 29 0 0 5 -10 10 -22 10 -17 1 -18 3 -6 6 16 4 16 6 2 28 -21 32 -21 30 -5
48 9 12 29 17 66 17 l52 0 6 41 c7 52 1 68 -30 80 -34 13 -55 11 -79 -6z m74
-53 l3 -42 -40 0 c-29 0 -41 4 -41 14 0 8 -3 23 -7 33 -3 10 -3 15 1 11 4 -3
17 3 27 13 32 32 54 21 57 -29z m-88 -12 c0 -5 -4 -10 -10 -10 -5 0 -10 5 -10
10 0 6 5 10 10 10 6 0 10 -4 10 -10z"/>
<path d="M3127 1623 c-9 -15 -41 -222 -36 -228 4 -3 13 -3 21 0 18 7 51 197
36 206 -5 3 -2 9 7 12 10 4 14 3 9 -4 -4 -7 2 -9 17 -7 12 1 24 9 27 16 4 13
-73 18 -81 5z"/>
<path d="M3256 1609 c-14 -11 -26 -29 -26 -39 0 -29 11 -50 27 -50 8 0 12 -4
9 -9 -3 -5 1 -14 9 -21 8 -7 15 -21 15 -30 0 -37 -12 -50 -44 -50 -23 0 -33
-5 -33 -16 0 -13 9 -15 46 -11 81 9 104 67 51 127 -16 18 -30 44 -30 57 0 16
-4 22 -12 17 -7 -4 -8 -3 -4 4 4 7 27 12 52 12 32 0 44 4 44 15 0 23 -72 19
-104 -6z"/>
<path d="M3423 1613 c-3 -8 -3 -17 1 -20 3 -4 6 -2 6 3 0 6 16 8 35 6 20 -2
35 -10 35 -17 0 -7 4 -15 9 -17 5 -2 5 -13 0 -25 -7 -19 -16 -23 -48 -23 -52
0 -81 -29 -81 -81 0 -42 3 -46 50 -54 49 -9 90 3 90 25 0 10 -5 21 -10 23 -6
3 -5 4 2 3 9 -2 17 21 24 73 16 101 4 123 -63 120 -27 -2 -47 -8 -50 -16z m94
1 c-3 -3 -12 -4 -19 -1 -8 3 -5 6 6 6 11 1 17 -2 13 -5z m-26 -157 c-3 -49 -9
-54 -57 -49 -22 3 -31 7 -24 12 8 5 10 17 7 30 -7 27 10 47 44 52 32 5 33 4
30 -45z"/>
<path d="M3611 1578 c-5 -29 -13 -73 -17 -98 -3 -25 -8 -55 -10 -67 -3 -17 0
-23 15 -23 21 0 25 10 41 128 11 75 14 82 35 82 13 0 25 7 29 15 4 12 -4 15
-39 15 l-44 0 -10 -52z m66 36 c-3 -3 -12 -4 -19 -1 -8 3 -5 6 6 6 11 1 17 -2
13 -5z"/>
<path d="M3755 1620 c-8 -12 -35 -176 -35 -212 0 -20 4 -25 18 -21 15 3 21 21
31 86 7 45 15 90 18 101 3 13 1 16 -7 11 -9 -6 -9 -3 -1 13 6 11 11 23 11 26
0 10 -28 7 -35 -4z m-18 -202 c-3 -7 -5 -2 -5 12 0 14 2 19 5 13 2 -7 2 -19 0
-25z"/>
<path d="M3917 1623 c-12 -11 -8 -23 9 -23 8 0 12 5 9 10 -7 12 5 13 22 2 14
-9 10 -113 -7 -157 -6 -15 -8 -30 -5 -35 3 -4 -12 -7 -33 -7 -35 2 -37 4 -40
36 -3 32 8 93 25 136 5 14 3 16 -8 10 -12 -8 -12 -6 0 8 18 23 -1 22 -21 0
-30 -34 -55 -195 -28 -178 5 3 7 0 4 -8 -3 -8 6 -18 21 -25 32 -15 55 -15 55
-1 0 5 5 7 11 4 5 -4 19 1 29 10 43 39 59 168 26 204 -18 20 -56 28 -69 14z"/>
<path d="M2970 1396 c0 -9 8 -12 25 -8 37 7 41 22 6 22 -20 0 -31 -5 -31 -14z"/>
<path d="M3756 1292 c-4 -8 -5 -47 -1 -89 6 -63 9 -74 23 -70 62 20 63 20 69
-2 3 -11 12 -21 20 -21 8 0 13 6 10 13 -3 6 -8 20 -12 30 -4 10 -3 17 4 17 6
0 11 5 11 10 0 6 -9 10 -20 10 -11 0 -20 4 -20 8 0 5 -7 17 -15 28 -15 18 -15
16 -10 -23 6 -38 5 -43 -13 -43 -16 0 -20 10 -28 73 -6 46 -12 67 -18 59z"/>
<path d="M2340 1285 c0 -4 7 -13 15 -19 13 -10 11 -20 -13 -83 -22 -61 -31
-73 -49 -73 -13 0 -23 -4 -23 -8 0 -13 79 -37 88 -27 4 4 1 10 -5 12 -19 7
-16 20 18 106 17 43 30 79 28 82 -9 8 -59 17 -59 10z"/>
<path d="M3578 1233 c-32 -8 -19 -22 18 -20 54 3 63 -18 34 -78 -22 -46 -30
-98 -17 -111 9 -9 107 26 107 38 0 6 -9 7 -22 3 -61 -18 -68 -18 -68 4 0 11 9
35 20 53 35 58 21 119 -28 117 -15 -1 -35 -3 -44 -6z"/>
<path d="M2490 1215 c-6 -8 -14 -32 -17 -54 -5 -36 -3 -41 21 -52 32 -15 32
-20 1 -49 -25 -24 -32 -40 -17 -40 17 0 83 72 97 107 19 45 19 68 -1 87 -19
20 -68 21 -84 1z m69 -19 c9 -11 9 -22 -3 -50 -17 -40 -18 -41 -47 -25 -16 8
-19 16 -13 42 3 18 8 35 11 40 7 12 40 8 52 -7z"/>
<path d="M3418 1189 c-38 -22 -8 -188 37 -205 9 -4 27 -2 41 4 21 10 24 18 24
65 0 35 -8 68 -22 97 -24 47 -48 59 -80 39z m57 -40 c9 -17 17 -56 18 -87 2
-47 -1 -57 -16 -60 -20 -4 -42 41 -53 107 -12 73 21 99 51 40z"/>
<path d="M2660 1182 c0 -5 16 -13 35 -16 40 -8 42 -14 16 -47 -25 -33 -61
-105 -61 -124 0 -29 16 -15 38 33 12 26 34 68 49 94 15 25 25 49 22 52 -11 12
-99 19 -99 8z"/>
<path d="M3248 1163 c-30 -8 -20 -23 11 -17 23 5 32 2 40 -14 16 -30 14 -36
-24 -82 -23 -28 -35 -52 -35 -72 l0 -31 52 6 c28 4 56 12 62 18 8 9 -2 10 -41
5 -65 -8 -68 2 -18 67 61 80 36 142 -47 120z"/>
<path d="M2840 1098 c-40 -84 -39 -98 5 -98 31 0 35 -3 35 -25 0 -14 5 -25 10
-25 6 0 10 9 10 20 0 11 7 23 15 26 13 5 13 9 3 22 -7 8 -11 25 -10 38 2 17
-2 24 -12 24 -11 0 -16 -9 -16 -30 0 -25 -4 -30 -25 -30 -14 0 -25 2 -25 4 0
2 13 34 30 70 37 84 19 87 -20 4z"/>
</g>
</svg>
